<svg xmlns="http://www.w3.org/2000/svg" viewBox="0 0 360 120" fill="none">
  <!-- Palm leaf - white version -->
  <g transform="translate(10, 8)">
    <path d="M 55 95 Q 35 65 15 30" stroke="rgba(255,255,255,0.9)" stroke-width="1.5" fill="none" stroke-linecap="round"/>
    <path d="M 47 82 Q 30 78 18 60" stroke="rgba(255,255,255,0.9)" stroke-width="1.2" fill="none" stroke-linecap="round"/>
    <path d="M 42 72 Q 24 65 14 48" stroke="rgba(255,255,255,0.9)" stroke-width="1.2" fill="none" stroke-linecap="round"/>
    <path d="M 36 60 Q 20 52 12 36" stroke="rgba(255,255,255,0.9)" stroke-width="1.2" fill="none" stroke-linecap="round"/>
    <path d="M 30 49 Q 17 40 13 26" stroke="rgba(255,255,255,0.8)" stroke-width="1.1" fill="none" stroke-linecap="round"/>
    <path d="M 24 38 Q 14 29 14 16" stroke="rgba(255,255,255,0.8)" stroke-width="1.0" fill="none" stroke-linecap="round"/>
    <path d="M 19 28 Q 12 20 15 8" stroke="rgba(255,255,255,0.7)" stroke-width="0.9" fill="none" stroke-linecap="round"/>
    <path d="M 50 86 Q 62 80 70 62" stroke="rgba(255,255,255,0.9)" stroke-width="1.2" fill="none" stroke-linecap="round"/>
    <path d="M 45 75 Q 56 66 62 48" stroke="rgba(255,255,255,0.9)" stroke-width="1.2" fill="none" stroke-linecap="round"/>
    <path d="M 39 63 Q 48 52 52 35" stroke="rgba(255,255,255,0.8)" stroke-width="1.1" fill="none" stroke-linecap="round"/>
    <path d="M 33 51 Q 40 40 42 24" stroke="rgba(255,255,255,0.8)" stroke-width="1.0" fill="none" stroke-linecap="round"/>
    <path d="M 27 40 Q 32 30 32 15" stroke="rgba(255,255,255,0.7)" stroke-width="0.9" fill="none" stroke-linecap="round"/>
    <path d="M 21 30 Q 25 20 27 8" stroke="rgba(255,255,255,0.7)" stroke-width="0.8" fill="none" stroke-linecap="round"/>
  </g>
  <!-- Wordmark - white -->
  <text x="100" y="68" font-family="'Georgia', 'Times New Roman', serif" font-size="34" fill="rgba(255,255,255,0.95)">
    <tspan font-weight="700">YogaRetreat</tspan><tspan font-weight="400">Advisor</tspan>
  </text>
</svg>
